<svg xmlns="http://www.w3.org/2000/svg" version="1.1" xmlns:xlink="http://www.w3.org/1999/xlink" xmlns:svgjs="http://svgjs.dev/svgjs" width="2000" height="800" preserveAspectRatio="none" viewBox="0 0 2000 800">
    <g mask="url(&quot;#SvgjsMask1257&quot;)" fill="none">
        <rect width="2000" height="800" x="0" y="0" fill="rgba(0, 0, 0, 0.9)"></rect>
        <use xlink:href="#SvgjsG1261" transform="translate(0, 0)" fill="rgba(225, 150, 29, 0.76)"></use>
        <use xlink:href="#SvgjsG1261" transform="translate(950, 0)" fill="rgba(225, 150, 29, 0.76)"></use>
        <use xlink:href="#SvgjsG1261" transform="translate(1900, 0)" fill="rgba(225, 150, 29, 0.76)"></use>
    </g>
    <defs>
        <mask id="SvgjsMask1257">
            <rect width="2000" height="800" fill="#ffffff"></rect>
        </mask>
        <g id="SvgjsG1259">
            <path d="M2.115 12.192a1.05 1.05 0 1 1 0-2.1 1.05 1.05 0 0 1 0 2.1zM0 16V13.942c0-0.742 0.61-1.344 1.352-1.344h1.45c0.743 0 1.406 0.603 1.406 1.345V16H0z m13-3.897a1.051 1.051 0 0 0 1.05-1.05 1.05 1.05 0 0 0-2.099 0 1.05 1.05 0 0 0 1.051 1.049zM15.114 16V13.942c0-0.742-0.61-1.344-1.353-1.344h-1.448c-0.744 0-1.406 0.603-1.407 1.345V16h4.208z"></path>
            <path d="M6.494 11.133a1.062 1.053 0 1 0 2.124 0 1.062 1.053 0 1 0-2.124 0"></path>
            <path d="M4.998 16l0.836-2.277c0.335-1.163 1.31-1.128 1.309-1.127h0.828s0.974-0.036 1.309 1.127L10.116 16h-5.118z m2.558-7.25v-2.491l-0.414-0.414v2.49H0.885V0.414h6.257V4.483l0.414 0.414V0H0.474v8.75h7.082z m5.44-4.548a1.049 1.049 0 0 1-1.048-1.048c0-0.579 0.47-1.049 1.048-1.049a1.047 1.047 0 0 1 1.047 1.048 1.046 1.046 0 0 1-1.048 1.048z"></path>
            <path d="M8.329 6.958a0.441 0.441 0 0 0 0.442 0.442h1.454c0.165 0 0.382-0.066 0.474-0.205 0.314-0.464 0.643-0.953 0.741-1.1v2.749h3.661V6.025c0-0.737-0.576-1.401-1.256-1.4 0.002 0.346 0 0.118 0-0.015H12.082a1.343 1.343 0 0 0-1.119 0.599l-0.871 1.313-1.32-0.001L6.907 4.656a0.179 0.179 0 0 0-0.254 0 0.18 0.18 0 0 0 0 0.254l1.774 1.775c-0.038 0.063-0.098 0.192-0.097 0.273z"></path>
        </g>
        <g id="SvgjsG1260">
            <path d="M0.267 14.413h15.466V16H0.267z m0.632-1.535h13.998v0.872H0.899z m1.139-7.74h2.352v7.056h-2.352z m4.693 0h2.352v7.056h-2.352z m4.513 0h2.352v7.056H11.244zM0 3.595L8 0l8 3.595-0.007 0.927L0 4.535z"></path>
        </g>
        <g id="SvgjsG1258">
            <path d="M7.45 12.652S6.4 11.121 3.725 11.121C1.274 11.121 0 11.833 0 11.833V1.937s1.274-0.712 3.725-0.729C6.4 1.19 7.45 2.756 7.45 2.756V12.652z m1.087 0s1.05-1.531 3.725-1.531c2.451 0 3.725 0.712 3.725 0.713V1.937s-1.274-0.712-3.725-0.729c-2.675-0.017-3.725 1.548-3.725 1.548v9.896z"></path>
            <path d="M8.012 15.733S6.4 13.411 3.725 13.411c-2.451 0-3.725 0.712-3.725 0.712v-1.186s1.274-0.712 3.725-0.729c2.675-0.018 4.287 2.34 4.287 2.34V15.733z m0 0s1.612-2.323 4.287-2.323c2.451 0 3.725 0.712 3.725 0.712v-1.185s-1.274-0.712-3.725-0.729c-2.675-0.019-4.287 2.339-4.287 2.339v1.185z"></path>
        </g>
        <g id="SvgjsG1261">
            <use xlink:href="#SvgjsG1258" transform="translate(0, 0) scale(2.5)" fill="rgba(225, 150, 29, 0.76)"></use>
            <use xlink:href="#SvgjsG1259" transform="translate(0, 95) scale(2.5)" fill="rgba(225, 150, 29, 0.76)"></use>
            <use xlink:href="#SvgjsG1258" transform="translate(0, 190) scale(2.5)" fill="rgba(225, 150, 29, 0.76)"></use>
            <use xlink:href="#SvgjsG1259" transform="translate(0, 285) scale(2.5)" fill="rgba(225, 150, 29, 0.76)"></use>
            <use xlink:href="#SvgjsG1260" transform="translate(0, 380) scale(2.5)" fill="rgba(225, 150, 29, 0.76)"></use>
            <use xlink:href="#SvgjsG1260" transform="translate(0, 475) scale(2.5)" fill="rgba(225, 150, 29, 0.76)"></use>
            <use xlink:href="#SvgjsG1258" transform="translate(0, 570) scale(2.5)" fill="rgba(225, 150, 29, 0.76)"></use>
            <use xlink:href="#SvgjsG1259" transform="translate(0, 665) scale(2.5)" fill="rgba(225, 150, 29, 0.76)"></use>
            <use xlink:href="#SvgjsG1260" transform="translate(0, 760) scale(2.5)" fill="rgba(225, 150, 29, 0.76)"></use>
            <use xlink:href="#SvgjsG1259" transform="translate(95, 0) scale(2.5)" fill="rgba(225, 150, 29, 0.76)"></use>
            <use xlink:href="#SvgjsG1259" transform="translate(95, 95) scale(2.5)" fill="rgba(225, 150, 29, 0.76)"></use>
            <use xlink:href="#SvgjsG1259" transform="translate(95, 190) scale(2.5)" fill="rgba(225, 150, 29, 0.76)"></use>
            <use xlink:href="#SvgjsG1258" transform="translate(95, 285) scale(2.5)" fill="rgba(225, 150, 29, 0.76)"></use>
            <use xlink:href="#SvgjsG1259" transform="translate(95, 380) scale(2.5)" fill="rgba(225, 150, 29, 0.76)"></use>
            <use xlink:href="#SvgjsG1259" transform="translate(95, 475) scale(2.5)" fill="rgba(225, 150, 29, 0.76)"></use>
            <use xlink:href="#SvgjsG1258" transform="translate(95, 570) scale(2.5)" fill="rgba(225, 150, 29, 0.76)"></use>
            <use xlink:href="#SvgjsG1259" transform="translate(95, 665) scale(2.5)" fill="rgba(225, 150, 29, 0.76)"></use>
            <use xlink:href="#SvgjsG1259" transform="translate(95, 760) scale(2.5)" fill="rgba(225, 150, 29, 0.76)"></use>
            <use xlink:href="#SvgjsG1259" transform="translate(190, 0) scale(2.5)" fill="rgba(225, 150, 29, 0.76)"></use>
            <use xlink:href="#SvgjsG1258" transform="translate(190, 95) scale(2.5)" fill="rgba(225, 150, 29, 0.76)"></use>
            <use xlink:href="#SvgjsG1260" transform="translate(190, 190) scale(2.5)" fill="rgba(225, 150, 29, 0.76)"></use>
            <use xlink:href="#SvgjsG1259" transform="translate(190, 285) scale(2.5)" fill="rgba(225, 150, 29, 0.76)"></use>
            <use xlink:href="#SvgjsG1258" transform="translate(190, 380) scale(2.5)" fill="rgba(225, 150, 29, 0.76)"></use>
            <use xlink:href="#SvgjsG1260" transform="translate(190, 475) scale(2.5)" fill="rgba(225, 150, 29, 0.76)"></use>
            <use xlink:href="#SvgjsG1260" transform="translate(190, 570) scale(2.5)" fill="rgba(225, 150, 29, 0.76)"></use>
            <use xlink:href="#SvgjsG1259" transform="translate(190, 665) scale(2.5)" fill="rgba(225, 150, 29, 0.76)"></use>
            <use xlink:href="#SvgjsG1259" transform="translate(190, 760) scale(2.5)" fill="rgba(225, 150, 29, 0.76)"></use>
            <use xlink:href="#SvgjsG1258" transform="translate(285, 0) scale(2.5)" fill="rgba(225, 150, 29, 0.76)"></use>
            <use xlink:href="#SvgjsG1258" transform="translate(285, 95) scale(2.5)" fill="rgba(225, 150, 29, 0.76)"></use>
            <use xlink:href="#SvgjsG1258" transform="translate(285, 190) scale(2.5)" fill="rgba(225, 150, 29, 0.76)"></use>
            <use xlink:href="#SvgjsG1258" transform="translate(285, 285) scale(2.5)" fill="rgba(225, 150, 29, 0.76)"></use>
            <use xlink:href="#SvgjsG1260" transform="translate(285, 380) scale(2.5)" fill="rgba(225, 150, 29, 0.76)"></use>
            <use xlink:href="#SvgjsG1259" transform="translate(285, 475) scale(2.5)" fill="rgba(225, 150, 29, 0.76)"></use>
            <use xlink:href="#SvgjsG1260" transform="translate(285, 570) scale(2.5)" fill="rgba(225, 150, 29, 0.76)"></use>
            <use xlink:href="#SvgjsG1259" transform="translate(285, 665) scale(2.5)" fill="rgba(225, 150, 29, 0.76)"></use>
            <use xlink:href="#SvgjsG1258" transform="translate(285, 760) scale(2.5)" fill="rgba(225, 150, 29, 0.76)"></use>
            <use xlink:href="#SvgjsG1258" transform="translate(380, 0) scale(2.5)" fill="rgba(225, 150, 29, 0.76)"></use>
            <use xlink:href="#SvgjsG1259" transform="translate(380, 95) scale(2.5)" fill="rgba(225, 150, 29, 0.76)"></use>
            <use xlink:href="#SvgjsG1260" transform="translate(380, 190) scale(2.5)" fill="rgba(225, 150, 29, 0.76)"></use>
            <use xlink:href="#SvgjsG1259" transform="translate(380, 285) scale(2.5)" fill="rgba(225, 150, 29, 0.76)"></use>
            <use xlink:href="#SvgjsG1259" transform="translate(380, 380) scale(2.5)" fill="rgba(225, 150, 29, 0.76)"></use>
            <use xlink:href="#SvgjsG1260" transform="translate(380, 475) scale(2.5)" fill="rgba(225, 150, 29, 0.76)"></use>
            <use xlink:href="#SvgjsG1260" transform="translate(380, 570) scale(2.5)" fill="rgba(225, 150, 29, 0.76)"></use>
            <use xlink:href="#SvgjsG1260" transform="translate(380, 665) scale(2.5)" fill="rgba(225, 150, 29, 0.76)"></use>
            <use xlink:href="#SvgjsG1259" transform="translate(380, 760) scale(2.5)" fill="rgba(225, 150, 29, 0.76)"></use>
            <use xlink:href="#SvgjsG1260" transform="translate(475, 0) scale(2.5)" fill="rgba(225, 150, 29, 0.76)"></use>
            <use xlink:href="#SvgjsG1258" transform="translate(475, 95) scale(2.5)" fill="rgba(225, 150, 29, 0.76)"></use>
            <use xlink:href="#SvgjsG1260" transform="translate(475, 190) scale(2.5)" fill="rgba(225, 150, 29, 0.76)"></use>
            <use xlink:href="#SvgjsG1258" transform="translate(475, 285) scale(2.5)" fill="rgba(225, 150, 29, 0.76)"></use>
            <use xlink:href="#SvgjsG1258" transform="translate(475, 380) scale(2.5)" fill="rgba(225, 150, 29, 0.76)"></use>
            <use xlink:href="#SvgjsG1260" transform="translate(475, 475) scale(2.5)" fill="rgba(225, 150, 29, 0.76)"></use>
            <use xlink:href="#SvgjsG1259" transform="translate(475, 570) scale(2.5)" fill="rgba(225, 150, 29, 0.76)"></use>
            <use xlink:href="#SvgjsG1258" transform="translate(475, 665) scale(2.5)" fill="rgba(225, 150, 29, 0.76)"></use>
            <use xlink:href="#SvgjsG1259" transform="translate(475, 760) scale(2.5)" fill="rgba(225, 150, 29, 0.76)"></use>
            <use xlink:href="#SvgjsG1260" transform="translate(570, 0) scale(2.5)" fill="rgba(225, 150, 29, 0.76)"></use>
            <use xlink:href="#SvgjsG1258" transform="translate(570, 95) scale(2.5)" fill="rgba(225, 150, 29, 0.76)"></use>
            <use xlink:href="#SvgjsG1260" transform="translate(570, 190) scale(2.5)" fill="rgba(225, 150, 29, 0.76)"></use>
            <use xlink:href="#SvgjsG1259" transform="translate(570, 285) scale(2.5)" fill="rgba(225, 150, 29, 0.76)"></use>
            <use xlink:href="#SvgjsG1259" transform="translate(570, 380) scale(2.5)" fill="rgba(225, 150, 29, 0.76)"></use>
            <use xlink:href="#SvgjsG1260" transform="translate(570, 475) scale(2.5)" fill="rgba(225, 150, 29, 0.76)"></use>
            <use xlink:href="#SvgjsG1260" transform="translate(570, 570) scale(2.5)" fill="rgba(225, 150, 29, 0.76)"></use>
            <use xlink:href="#SvgjsG1258" transform="translate(570, 665) scale(2.5)" fill="rgba(225, 150, 29, 0.76)"></use>
            <use xlink:href="#SvgjsG1259" transform="translate(570, 760) scale(2.5)" fill="rgba(225, 150, 29, 0.76)"></use>
            <use xlink:href="#SvgjsG1260" transform="translate(665, 0) scale(2.5)" fill="rgba(225, 150, 29, 0.76)"></use>
            <use xlink:href="#SvgjsG1260" transform="translate(665, 95) scale(2.5)" fill="rgba(225, 150, 29, 0.76)"></use>
            <use xlink:href="#SvgjsG1259" transform="translate(665, 190) scale(2.5)" fill="rgba(225, 150, 29, 0.76)"></use>
            <use xlink:href="#SvgjsG1258" transform="translate(665, 285) scale(2.5)" fill="rgba(225, 150, 29, 0.76)"></use>
            <use xlink:href="#SvgjsG1260" transform="translate(665, 380) scale(2.5)" fill="rgba(225, 150, 29, 0.76)"></use>
            <use xlink:href="#SvgjsG1259" transform="translate(665, 475) scale(2.5)" fill="rgba(225, 150, 29, 0.76)"></use>
            <use xlink:href="#SvgjsG1260" transform="translate(665, 570) scale(2.5)" fill="rgba(225, 150, 29, 0.76)"></use>
            <use xlink:href="#SvgjsG1258" transform="translate(665, 665) scale(2.5)" fill="rgba(225, 150, 29, 0.76)"></use>
            <use xlink:href="#SvgjsG1260" transform="translate(665, 760) scale(2.5)" fill="rgba(225, 150, 29, 0.76)"></use>
            <use xlink:href="#SvgjsG1258" transform="translate(760, 0) scale(2.5)" fill="rgba(225, 150, 29, 0.76)"></use>
            <use xlink:href="#SvgjsG1259" transform="translate(760, 95) scale(2.5)" fill="rgba(225, 150, 29, 0.76)"></use>
            <use xlink:href="#SvgjsG1259" transform="translate(760, 190) scale(2.5)" fill="rgba(225, 150, 29, 0.76)"></use>
            <use xlink:href="#SvgjsG1260" transform="translate(760, 285) scale(2.5)" fill="rgba(225, 150, 29, 0.76)"></use>
            <use xlink:href="#SvgjsG1260" transform="translate(760, 380) scale(2.5)" fill="rgba(225, 150, 29, 0.76)"></use>
            <use xlink:href="#SvgjsG1259" transform="translate(760, 475) scale(2.5)" fill="rgba(225, 150, 29, 0.76)"></use>
            <use xlink:href="#SvgjsG1258" transform="translate(760, 570) scale(2.5)" fill="rgba(225, 150, 29, 0.76)"></use>
            <use xlink:href="#SvgjsG1260" transform="translate(760, 665) scale(2.5)" fill="rgba(225, 150, 29, 0.76)"></use>
            <use xlink:href="#SvgjsG1259" transform="translate(760, 760) scale(2.5)" fill="rgba(225, 150, 29, 0.76)"></use>
            <use xlink:href="#SvgjsG1260" transform="translate(855, 0) scale(2.5)" fill="rgba(225, 150, 29, 0.76)"></use>
            <use xlink:href="#SvgjsG1260" transform="translate(855, 95) scale(2.5)" fill="rgba(225, 150, 29, 0.76)"></use>
            <use xlink:href="#SvgjsG1259" transform="translate(855, 190) scale(2.5)" fill="rgba(225, 150, 29, 0.76)"></use>
            <use xlink:href="#SvgjsG1260" transform="translate(855, 285) scale(2.5)" fill="rgba(225, 150, 29, 0.76)"></use>
            <use xlink:href="#SvgjsG1260" transform="translate(855, 380) scale(2.5)" fill="rgba(225, 150, 29, 0.76)"></use>
            <use xlink:href="#SvgjsG1259" transform="translate(855, 475) scale(2.5)" fill="rgba(225, 150, 29, 0.76)"></use>
            <use xlink:href="#SvgjsG1258" transform="translate(855, 570) scale(2.5)" fill="rgba(225, 150, 29, 0.76)"></use>
            <use xlink:href="#SvgjsG1258" transform="translate(855, 665) scale(2.5)" fill="rgba(225, 150, 29, 0.76)"></use>
            <use xlink:href="#SvgjsG1258" transform="translate(855, 760) scale(2.5)" fill="rgba(225, 150, 29, 0.76)"></use>
        </g>
    </defs>
</svg>