<svg xmlns="http://www.w3.org/2000/svg" version="1.1" xmlns:xlink="http://www.w3.org/1999/xlink" xmlns:svgjs="http://svgjs.dev/svgjs" width="1440" height="560" preserveAspectRatio="none" viewBox="0 0 1440 560">
    <g mask="url(&quot;#SvgjsMask1015&quot;)" fill="none">
        <rect width="1440" height="560" x="0" y="0" fill="rgba(42, 42, 42, 1)"></rect>
        <path d="M337 46L336 427" stroke-width="6" stroke="url(&quot;#SvgjsLinearGradient1016&quot;)" stroke-linecap="round" class="Down"></path>
        <path d="M1420 43L1419 -336" stroke-width="6" stroke="url(&quot;#SvgjsLinearGradient1017&quot;)" stroke-linecap="round" class="Up"></path>
        <path d="M308 516L307 782" stroke-width="8" stroke="url(&quot;#SvgjsLinearGradient1017&quot;)" stroke-linecap="round" class="Up"></path>
        <path d="M361 205L360 474" stroke-width="10" stroke="url(&quot;#SvgjsLinearGradient1016&quot;)" stroke-linecap="round" class="Down"></path>
        <path d="M1179 334L1178 -45" stroke-width="8" stroke="url(&quot;#SvgjsLinearGradient1017&quot;)" stroke-linecap="round" class="Up"></path>
        <path d="M947 53L946 -250" stroke-width="6" stroke="url(&quot;#SvgjsLinearGradient1017&quot;)" stroke-linecap="round" class="Up"></path>
        <path d="M721 288L720 -130" stroke-width="8" stroke="url(&quot;#SvgjsLinearGradient1017&quot;)" stroke-linecap="round" class="Up"></path>
        <path d="M1213 520L1212 207" stroke-width="10" stroke="url(&quot;#SvgjsLinearGradient1016&quot;)" stroke-linecap="round" class="Down"></path>
        <path d="M838 384L837 211" stroke-width="10" stroke="url(&quot;#SvgjsLinearGradient1017&quot;)" stroke-linecap="round" class="Up"></path>
        <path d="M625 547L624 841" stroke-width="8" stroke="url(&quot;#SvgjsLinearGradient1017&quot;)" stroke-linecap="round" class="Up"></path>
        <path d="M1424 557L1423 718" stroke-width="8" stroke="url(&quot;#SvgjsLinearGradient1016&quot;)" stroke-linecap="round" class="Down"></path>
        <path d="M990 95L989 433" stroke-width="10" stroke="url(&quot;#SvgjsLinearGradient1017&quot;)" stroke-linecap="round" class="Up"></path>
        <path d="M1292 232L1291 7" stroke-width="8" stroke="url(&quot;#SvgjsLinearGradient1017&quot;)" stroke-linecap="round" class="Up"></path>
        <path d="M546 315L545 489" stroke-width="8" stroke="url(&quot;#SvgjsLinearGradient1017&quot;)" stroke-linecap="round" class="Up"></path>
        <path d="M1296 343L1295 642" stroke-width="6" stroke="url(&quot;#SvgjsLinearGradient1017&quot;)" stroke-linecap="round" class="Up"></path>
        <path d="M1225 195L1224 557" stroke-width="10" stroke="url(&quot;#SvgjsLinearGradient1016&quot;)" stroke-linecap="round" class="Down"></path>
        <path d="M49 453L48 53" stroke-width="6" stroke="url(&quot;#SvgjsLinearGradient1016&quot;)" stroke-linecap="round" class="Down"></path>
        <path d="M1005 515L1004 111" stroke-width="10" stroke="url(&quot;#SvgjsLinearGradient1016&quot;)" stroke-linecap="round" class="Down"></path>
        <path d="M728 127L727 368" stroke-width="10" stroke="url(&quot;#SvgjsLinearGradient1017&quot;)" stroke-linecap="round" class="Up"></path>
        <path d="M893 277L892 28" stroke-width="6" stroke="url(&quot;#SvgjsLinearGradient1017&quot;)" stroke-linecap="round" class="Up"></path>
        <path d="M1044 118L1043 528" stroke-width="6" stroke="url(&quot;#SvgjsLinearGradient1017&quot;)" stroke-linecap="round" class="Up"></path>
        <path d="M1388 348L1387 -47" stroke-width="8" stroke="url(&quot;#SvgjsLinearGradient1017&quot;)" stroke-linecap="round" class="Up"></path>
        <path d="M313 159L312 399" stroke-width="10" stroke="url(&quot;#SvgjsLinearGradient1016&quot;)" stroke-linecap="round" class="Down"></path>
        <path d="M438 131L437 423" stroke-width="6" stroke="url(&quot;#SvgjsLinearGradient1017&quot;)" stroke-linecap="round" class="Up"></path>
        <path d="M1089 408L1088 730" stroke-width="8" stroke="url(&quot;#SvgjsLinearGradient1017&quot;)" stroke-linecap="round" class="Up"></path>
        <path d="M896 201L895 562" stroke-width="6" stroke="url(&quot;#SvgjsLinearGradient1017&quot;)" stroke-linecap="round" class="Up"></path>
        <path d="M38 186L37 340" stroke-width="10" stroke="url(&quot;#SvgjsLinearGradient1017&quot;)" stroke-linecap="round" class="Up"></path>
        <path d="M1166 412L1165 243" stroke-width="8" stroke="url(&quot;#SvgjsLinearGradient1017&quot;)" stroke-linecap="round" class="Up"></path>
        <path d="M1395 160L1394 521" stroke-width="6" stroke="url(&quot;#SvgjsLinearGradient1016&quot;)" stroke-linecap="round" class="Down"></path>
        <path d="M449 426L448 610" stroke-width="10" stroke="url(&quot;#SvgjsLinearGradient1017&quot;)" stroke-linecap="round" class="Up"></path>
        <path d="M435 338L434 74" stroke-width="6" stroke="url(&quot;#SvgjsLinearGradient1016&quot;)" stroke-linecap="round" class="Down"></path>
        <path d="M1110 416L1109 275" stroke-width="8" stroke="url(&quot;#SvgjsLinearGradient1016&quot;)" stroke-linecap="round" class="Down"></path>
        <path d="M1286 314L1285 592" stroke-width="6" stroke="url(&quot;#SvgjsLinearGradient1016&quot;)" stroke-linecap="round" class="Down"></path>
        <path d="M661 189L660 -84" stroke-width="6" stroke="url(&quot;#SvgjsLinearGradient1017&quot;)" stroke-linecap="round" class="Up"></path>
        <path d="M407 238L406 -37" stroke-width="10" stroke="url(&quot;#SvgjsLinearGradient1016&quot;)" stroke-linecap="round" class="Down"></path>
        <path d="M46 105L45 518" stroke-width="10" stroke="url(&quot;#SvgjsLinearGradient1017&quot;)" stroke-linecap="round" class="Up"></path>
    </g>
    <defs>
        <mask id="SvgjsMask1015">
            <rect width="1440" height="560" fill="#ffffff"></rect>
        </mask>
        <linearGradient x1="0%" y1="0%" x2="0%" y2="100%" id="SvgjsLinearGradient1016">
            <stop stop-color="rgba(211, 179, 47, 0)" offset="0"></stop>
            <stop stop-color="rgba(211, 179, 47, 0.36)" offset="1"></stop>
        </linearGradient>
        <linearGradient x1="0%" y1="100%" x2="0%" y2="0%" id="SvgjsLinearGradient1017">
            <stop stop-color="rgba(211, 179, 47, 0)" offset="0"></stop>
            <stop stop-color="rgba(211, 179, 47, 0.36)" offset="1"></stop>
        </linearGradient>
    </defs>
</svg>